<?xml version="1.0" encoding="iso-8859-1"?>
<!-- Generator: Adobe Illustrator 18.0.0, SVG Export Plug-In . SVG Version: 6.00 Build 0)  -->
<!DOCTYPE svg PUBLIC "-//W3C//DTD SVG 1.1//EN" "http://www.w3.org/Graphics/SVG/1.1/DTD/svg11.dtd">
<svg version="1.1" id="Capa_1" xmlns="http://www.w3.org/2000/svg" xmlns:xlink="http://www.w3.org/1999/xlink" x="0px" y="0px"
	 viewBox="0 0 60 60" style="enable-background:new 0 0 60 60;" xml:space="preserve">
<g>
	<path d="M47,32.5c-7.168,0-13,5.832-13,13s5.832,13,13,13s13-5.832,13-13S54.168,32.5,47,32.5z M47,56.5c-6.065,0-11-4.935-11-11
		s4.935-11,11-11s11,4.935,11,11S53.065,56.5,47,56.5z"/>
	<path d="M53,44.5H41c-0.552,0-1,0.447-1,1s0.448,1,1,1h12c0.552,0,1-0.447,1-1S53.552,44.5,53,44.5z"/>
	<path d="M46.684,29.516c0.367-0.777,0.704-1.572,0.989-2.399C49.084,26.47,50,25.075,50,23.5v-4c0-0.963-0.36-1.896-1-2.625v-5.319
		c0.056-0.55,0.276-3.824-2.092-6.525C44.854,2.688,41.521,1.5,37,1.5s-7.854,1.188-9.908,3.53
		c-1.435,1.637-1.918,3.481-2.064,4.805C23.314,8.949,21.294,8.5,19,8.5c-10.389,0-10.994,8.855-11,9v4.579
		c-0.648,0.706-1,1.521-1,2.33v3.454c0,1.079,0.483,2.085,1.311,2.765c0.825,3.11,2.854,5.46,3.644,6.285v2.743
		c0,0.787-0.428,1.509-1.171,1.915l-6.653,4.173C1.583,47.134,0,49.801,0,52.703V56.5h14h2h19.411C32.685,53.63,31,49.762,31,45.5
		C31,36.784,38.009,29.687,46.684,29.516z M14,54.5H2v-1.797c0-2.17,1.183-4.164,3.089-5.203l0.053-0.029l0.052-0.032l6.609-4.146
		c1.349-0.764,2.152-2.118,2.152-3.636v-2.743V36.11l-0.555-0.58c-0.558-0.583-2.435-2.698-3.156-5.415l-0.165-0.624L9.58,29.082
		C9.211,28.78,9,28.335,9,27.863v-3.454c0-0.298,0.168-0.645,0.474-0.978L10,22.858v-0.779v-4.506c0.078-0.921,0.901-7.073,9-7.073
		c2.392,0,4.408,0.552,6,1.644v4.73c-0.648,0.731-1,1.647-1,2.626v4c0,0.304,0.035,0.603,0.101,0.893
		c0.199,0.867,0.687,1.646,1.393,2.214c0.001,0.001,0.002,0.002,0.003,0.003c0.006,0.023,0.014,0.043,0.019,0.066
		c0.055,0.212,0.116,0.432,0.192,0.686l0.074,0.239c0.011,0.036,0.024,0.067,0.035,0.103c0.063,0.197,0.129,0.387,0.197,0.578
		c0.031,0.088,0.06,0.183,0.092,0.269c0.06,0.162,0.116,0.303,0.173,0.443c0.048,0.12,0.096,0.237,0.146,0.354
		c0.037,0.088,0.075,0.18,0.113,0.266l0.004-0.002c0.018,0.042,0.037,0.083,0.055,0.125l-0.004,0.002
		c0.024,0.055,0.05,0.104,0.075,0.159c0.098,0.216,0.195,0.425,0.296,0.627c0.016,0.033,0.032,0.07,0.048,0.103
		c0.026,0.052,0.053,0.096,0.079,0.147c0.157,0.306,0.311,0.594,0.465,0.864c0.017,0.03,0.033,0.058,0.05,0.087
		c0.575,0.998,1.102,1.742,1.392,2.122L29,37.155c0,0.242-0.033,0.479-0.096,0.706c-0.188,0.68-0.644,1.267-1.282,1.615
		l-8.921,4.866c-0.247,0.135-0.474,0.294-0.705,0.449c-0.108,0.072-0.225,0.133-0.329,0.21c-0.018,0.013-0.033,0.03-0.051,0.043
		C15.361,46.731,14,49.393,14,52.262V54.5z"/>
</g>
<g>
</g>
<g>
</g>
<g>
</g>
<g>
</g>
<g>
</g>
<g>
</g>
<g>
</g>
<g>
</g>
<g>
</g>
<g>
</g>
<g>
</g>
<g>
</g>
<g>
</g>
<g>
</g>
<g>
</g>
</svg>
