<?xml version="1.0" encoding="iso-8859-1"?>
<!-- Generator: Adobe Illustrator 19.0.0, SVG Export Plug-In . SVG Version: 6.00 Build 0)  -->
<svg version="1.1" id="Layer_1" xmlns="http://www.w3.org/2000/svg" xmlns:xlink="http://www.w3.org/1999/xlink" x="0px" y="0px"
	 viewBox="0 0 512.003 512.003" style="enable-background:new 0 0 512.003 512.003;" xml:space="preserve">
<path style="fill:#ED5564;" d="M423.004,48.564c-59.234-28.703-123.062-16.578-167,34.797
	c-43.937-51.375-107.765-63.5-167.015-34.797C13.614,89.455-22.292,182.658,14.645,280.299
	c46.844,129.719,216.656,190.437,241.359,198.344c24.719-7.906,194.531-68.625,241.344-198.344
	C534.301,182.658,498.395,89.455,423.004,48.564z"/>
<path style="fill:#E6E9ED;" d="M505.488,254.424H323.535l-34.125,77.344l-63.953-191.844l-51.219,114.5L6.52,254.44
	c1.781,7.062,3.938,14.188,6.469,21.328l175.062-0.016l34.5-77.078l64.078,192.25l50.812-115.156h161.578
	C501.566,268.611,503.707,261.502,505.488,254.424z"/>
<g style="opacity:0.2;">
	<path style="fill:#FFFFFF;" d="M423.004,48.564c-24.5-11.875-49.797-16.75-74.141-14.766c17.578,1.422,35.391,6.328,52.812,14.766
		c75.391,40.891,111.297,134.094,74.344,231.734c-42.39,117.454-185.64,178.345-230.686,194.673
		c4.703,1.703,8.344,2.922,10.671,3.672c24.719-7.906,194.531-68.625,241.344-198.344
		C534.301,182.658,498.395,89.455,423.004,48.564z"/>
</g>
<g>
</g>
<g>
</g>
<g>
</g>
<g>
</g>
<g>
</g>
<g>
</g>
<g>
</g>
<g>
</g>
<g>
</g>
<g>
</g>
<g>
</g>
<g>
</g>
<g>
</g>
<g>
</g>
<g>
</g>
</svg>
