<?xml version="1.0" encoding="iso-8859-1"?>
<!-- Generator: Adobe Illustrator 19.0.0, SVG Export Plug-In . SVG Version: 6.00 Build 0)  -->
<svg version="1.1" id="Capa_1" xmlns="http://www.w3.org/2000/svg" xmlns:xlink="http://www.w3.org/1999/xlink" x="0px" y="0px"
	 viewBox="0 0 359 359" style="enable-background:new 0 0 359 359;" xml:space="preserve">
<g id="XMLID_1877_">
	<polygon id="XMLID_1879_" style="fill:#A0815C;" points="159.5,309 139.5,309 139.5,359 179.5,359 179.5,309 	"/>
	<path id="XMLID_1880_" style="fill:#DEDDE0;" d="M159.5,279.25h-19.806c-0.064-0.073-0.13-0.148-0.194-0.221V309h20V279.25z"/>
	<path id="XMLID_1881_" style="fill:#CDCDD0;" d="M219.306,279.25H199.5V309h20v-29.971
		C219.435,279.102,219.37,279.177,219.306,279.25z"/>
	<polygon id="XMLID_1882_" style="fill:#50412E;" points="179.5,309 179.5,359 219.5,359 219.5,309 199.5,309 	"/>
	<path id="XMLID_1883_" style="fill:#5A8BB0;" d="M159.5,279.25c-16.008-39.578-35-101.92-35-159.25c0-66.273,24.625-120,55-120
		c-66.273,0-120,53.727-120,120c0,57.225,45.098,119.439,80,159.029c0.064,0.072,0.13,0.147,0.194,0.221H159.5z"/>
	<path id="XMLID_1884_" style="fill:#3C5D76;" d="M234.5,120c0,57.33-18.992,119.672-35,159.25h19.806
		c0.064-0.073,0.13-0.148,0.194-0.221c34.902-39.59,80-101.805,80-159.029c0-66.273-53.727-120-120-120
		C209.875,0,234.5,53.727,234.5,120z"/>
	<path id="XMLID_1885_" style="fill:#78B9EB;" d="M124.5,120c0,57.33,18.992,119.672,35,159.25h20h20
		c16.008-39.578,35-101.92,35-159.25c0-66.273-24.625-120-55-120S124.5,53.727,124.5,120z"/>
</g>
<g>
</g>
<g>
</g>
<g>
</g>
<g>
</g>
<g>
</g>
<g>
</g>
<g>
</g>
<g>
</g>
<g>
</g>
<g>
</g>
<g>
</g>
<g>
</g>
<g>
</g>
<g>
</g>
<g>
</g>
</svg>
