<?xml version="1.0" encoding="iso-8859-1"?>
<!-- Generator: Adobe Illustrator 19.0.0, SVG Export Plug-In . SVG Version: 6.00 Build 0)  -->
<svg version="1.1" id="Layer_1" xmlns="http://www.w3.org/2000/svg" xmlns:xlink="http://www.w3.org/1999/xlink" x="0px" y="0px"
	 viewBox="0 0 512 512" style="enable-background:new 0 0 512 512;" xml:space="preserve">
<polygon style="fill:#E4F1FB;" points="402.286,512 54.857,512 54.857,0 457.143,0 457.143,457.143 "/>
<polygon style="fill:#C9E3F7;" points="402.286,512 256,512 256,0 457.143,0 457.143,457.143 "/>
<rect x="256" y="128" style="fill:#5A8BB0;" width="146.286" height="54.857"/>
<rect x="109.714" y="237.714" style="fill:#78B9EB;" width="292.571" height="54.857"/>
<rect x="256" y="237.714" style="fill:#5A8BB0;" width="146.286" height="54.857"/>
<rect x="109.714" y="347.429" style="fill:#78B9EB;" width="292.571" height="54.857"/>
<rect x="256" y="347.429" style="fill:#5A8BB0;" width="146.286" height="54.857"/>
<polygon style="fill:#78B9EB;" points="402.286,512 402.286,457.143 457.143,457.143 "/>
<polygon style="fill:#D80027;" points="219.429,87.771 186.514,87.771 186.514,54.857 142.629,54.857 142.629,87.771 
	109.714,87.771 109.714,131.657 142.629,131.657 142.629,164.571 186.514,164.571 186.514,131.657 219.429,131.657 "/>
<g>
</g>
<g>
</g>
<g>
</g>
<g>
</g>
<g>
</g>
<g>
</g>
<g>
</g>
<g>
</g>
<g>
</g>
<g>
</g>
<g>
</g>
<g>
</g>
<g>
</g>
<g>
</g>
<g>
</g>
</svg>
