<?xml version="1.0" encoding="iso-8859-1"?>
<!-- Generator: Adobe Illustrator 19.0.0, SVG Export Plug-In . SVG Version: 6.00 Build 0)  -->
<svg version="1.1" id="Layer_1" xmlns="http://www.w3.org/2000/svg" xmlns:xlink="http://www.w3.org/1999/xlink" x="0px" y="0px"
	 viewBox="0 0 495 495" style="enable-background:new 0 0 495 495;" xml:space="preserve">
<g>
	<path style="fill:#BDDBFF;" d="M340.924,119.191c0-34.657-28.196-62.853-62.854-62.853h-20v40h20
		c12.602,0,22.854,10.252,22.854,22.853s-10.252,22.853-22.854,22.853H0v40h278.07C312.728,182.044,340.924,153.848,340.924,119.191
		z"/>
	<path style="fill:#BDDBFF;" d="M355.109,312.956H0v40h355.109c12.601,0,22.853,10.252,22.853,22.853s-10.252,22.853-22.853,22.853
		h-20v40h20c34.657,0,62.853-28.196,62.853-62.853S389.767,312.956,355.109,312.956z"/>
	<rect x="176.088" y="227.5" style="fill:#9BC9FF;" width="318.912" height="40"/>
	<rect y="227.5" style="fill:#9BC9FF;" width="128.044" height="40"/>
</g>
<g>
</g>
<g>
</g>
<g>
</g>
<g>
</g>
<g>
</g>
<g>
</g>
<g>
</g>
<g>
</g>
<g>
</g>
<g>
</g>
<g>
</g>
<g>
</g>
<g>
</g>
<g>
</g>
<g>
</g>
</svg>
